<mxfile host="app.diagrams.net" modified="2023-12-02T13:35:04.510Z" agent="Mozilla/5.0 (Windows NT 10.0; Win64; x64) AppleWebKit/537.36 (KHTML, like Gecko) Chrome/119.0.0.0 Safari/537.36" version="22.1.5" etag="7CbEFCMue5f7JBS1rmk1" type="github">
  <diagram name="Page-1" id="pCswCvkReXYKl7ZQT1ek">
    <mxGraphModel>
      <root>
        <mxCell id="0" />
        <mxCell id="1" parent="0" />
      </root>
    </mxGraphModel>
  </diagram>
</mxfile>
